<svg width="513" height="301" viewBox="0 0 513 301" fill="none" xmlns="http://www.w3.org/2000/svg">
<path d="M51.2203 40.9599C53.2903 23.4499 67.1103 8.61993 83.4303 3.17993C99.0603 -2.03007 98.1003 1.87993 97.2503 16.9999C96.2303 35.1299 87.6403 51.9599 70.2003 58.9399C68.6203 59.5699 59.4203 63.3599 59.2503 59.9699C64.1403 49.4899 70.3003 39.6399 75.7203 29.4599C76.5603 27.8799 76.7103 27.1499 74.7303 27.4699C66.2403 38.2299 55.4303 49.5199 54.1903 63.9299C53.8703 67.6999 54.0103 93.0699 55.2303 94.4699C57.5603 95.0799 56.9003 93.9099 57.5203 93.1999C60.7403 89.4699 62.9603 84.7899 66.7303 81.4699H94.2203C95.3503 84.4199 94.8403 85.6599 93.6103 88.3599C86.6803 103.68 69.0103 120.98 62.3803 136.12C60.9303 139.43 60.9303 139.74 62.0003 143.19C65.3903 154.15 77.9203 175.08 83.7003 186.49C87.6903 194.38 93.5903 203.22 96.9403 211.24C98.6303 215.28 98.9403 217.84 93.7603 218.52C90.1103 218.99 70.9203 218.89 68.6503 217.54C62.9603 214.15 47.3203 171.9 40.7203 164.49C39.4503 167.41 30.2203 179.14 30.2203 180.97V216.97L28.7203 218.47H3.73027C3.56027 218.47 1.97027 216.93 1.75027 216.45L1.18027 84.9099L2.73027 81.4599H26.7203C27.2903 81.4599 30.2203 80.7299 30.2203 82.9599V132.96C30.2203 133.08 31.6703 134.96 32.2303 133.98C45.2903 115.03 52.4903 99.2199 48.7703 75.4099C45.8403 56.6799 33.3903 48.4299 22.7203 34.4699C21.4103 35.1099 22.6403 37.1999 23.0203 38.1699C24.3603 41.5899 39.7903 64.0299 38.2103 65.4599C14.4803 64.5099 1.67027 45.0999 0.240266 22.9499C-0.699734 8.37993 0.580266 7.91992 13.9803 12.2099C30.3903 17.4599 38.2803 27.3299 44.2303 42.9499C45.7203 46.8499 46.6303 53.7199 48.4303 56.7399C49.2003 58.0199 49.4503 58.7999 51.2103 58.4599C51.6803 52.8799 50.5603 46.4099 51.2103 40.9599H51.2203Z" fill="#00AF66"/>
<path d="M352.98 166.63C350.27 166.65 342.22 165.24 341.29 168.1L341.14 230.97C341.84 234.68 352.89 234.34 356.85 236.25C365.28 240.32 361.38 251.86 361.1 258.92C360.89 264.27 361.58 291.01 355.5 292.28C353.78 292.64 352.05 291.22 351.58 289.55C348.84 279.78 353.04 262.28 351.12 251.98C350.35 247.85 345.71 246.16 342.39 248.7C338.69 252.41 346.24 287.61 339.18 291.99C333.89 295.27 331.54 284.68 331.16 280.95C330.09 270.3 334.04 258.91 330.48 249.39C328.22 248.34 324.8 247.65 323.05 249.87C319.7 254.13 324.31 279.45 323.09 286.9C321.66 295.6 315.7 293.42 314.23 284.88C312.7 275.97 311.45 261.06 311.16 251.95C311.01 247.25 310.62 239.97 315.2 237.01C318.41 234.94 329.18 235.67 329.75 232L328 218.59C324.05 217.81 314.14 220.35 313.15 214.95L313.35 84.1499C314.1 81.9699 315.56 81.6699 317.6 81.3999C326.46 80.2199 357.32 80.2299 366.38 81.6999C406.05 88.1399 413.14 144.4 378.25 161.92C380.31 168.55 402.77 212.7 401.67 215.41C401.45 215.96 399.68 217.68 399.1 217.92C396.08 219.17 375.58 219.03 373.16 216.92L352.98 166.61V166.63ZM341.14 141.46H356.64C358.99 141.46 362.76 139.3 363.85 138.67C372.43 133.78 375.43 120.99 368.54 113.55C367.17 112.07 362.94 107.45 357.64 107.45H341.14V141.45V141.46Z" fill="#00AF66"/>
<path d="M439.12 70.4598C440.76 61.1098 443.06 52.0398 447.1 43.4698C436.97 54.7398 432.76 70.3898 435.6 85.4898C436.9 87.1698 436.69 85.9598 437.62 85.4998C450.66 79.0798 458.14 75.6798 473.31 78.7698C515.85 87.4398 513.51 137.89 511.14 172.01C506.75 235.17 421.85 235.21 417.09 175C415.49 154.76 414.71 115.22 425.29 98.1298C428.83 92.4098 432.89 92.3798 432.13 83.9698C431.14 73.1198 424.51 72.6398 418.58 66.5198C410.96 58.6398 406.01 41.2698 410.05 30.8998C414.56 27.5498 421.87 40.3298 423.5 43.6098C426.21 49.0798 427.23 55.2598 429.67 60.4898C430.37 61.9798 429.51 62.9598 432.12 62.4798C429.75 49.7098 437.01 35.6698 446.8 27.6598C449.32 25.5998 459.39 18.8898 462.19 20.9098C466.23 41.7698 460.69 62.7398 439.13 70.4798L439.12 70.4598ZM462.88 106.73C455.65 106.99 448.54 113.22 446.07 119.92C442.18 130.44 441.54 166.58 445.07 177.02C451.7 196.59 474.2 197.45 481.15 178.01C485.34 166.27 486.42 126.71 479.55 116.54C476.21 111.59 469.12 106.52 462.89 106.74L462.88 106.73Z" fill="#00AF66"/>
<path d="M288.161 34.4702C276.821 50.8402 269.031 68.8302 262.171 87.4502L268.621 80.8702C273.681 82.8702 289.521 79.6702 292.681 82.4402C293.381 83.0502 294.021 84.8102 293.931 85.8002L262.951 135.73L262.071 139.96L298.711 211.41C299.631 213.59 299.451 216.84 297.161 217.96C294.871 219.08 271.441 218.88 269.591 217.53L241.691 163.46C240.121 165.92 237.441 169.63 236.441 172.22C233.981 178.63 234.811 199.18 234.541 207.79C234.421 211.57 237.291 217.77 230.731 218.52C227.821 218.85 209.661 218.95 207.821 218.33C205.741 217.63 205.281 213.06 205.141 211.01C206.741 171.41 203.151 130.35 205.141 90.9302C205.201 89.7702 205.841 81.8302 206.251 81.5502C211.211 80.7602 215.561 82.7702 219.201 85.9502L230.171 103.46C230.331 95.6202 229.151 86.7902 226.901 79.2502C224.651 71.7102 219.491 65.8402 218.191 58.4702C234.881 62.1402 242.751 83.2202 241.211 99.0002L234.671 129.46C247.961 108.15 246.581 81.4802 259.001 59.7902C264.921 49.4502 275.841 36.2702 288.161 34.4702Z" fill="#00AF66"/>
<path d="M111.701 218.46C111.371 218.37 109.931 216.91 109.721 216.44L109.411 84.1602C111.231 77.9702 130.211 84.6102 132.711 79.4602C133.571 77.6802 133.571 68.2002 132.991 66.1702C131.671 61.5602 122.021 56.6202 127.701 48.4602L134.191 56.4502C135.031 49.8702 128.431 47.3302 127.601 41.4702C127.121 38.0902 128.371 35.7302 128.211 32.4602C132.401 32.7202 133.401 38.1802 134.221 41.4502C139.261 38.5402 131.891 32.2602 131.261 28.9102C130.631 25.5602 131.171 20.1102 133.711 17.4802L138.201 25.4602L139.221 9.47022C141.871 9.93022 138.131 15.5002 142.201 14.4702L143.221 7.47021L144.211 14.4602C145.841 16.4702 148.451 8.76021 149.711 8.47021L148.221 15.4702L150.711 13.4702C151.471 11.8002 153.181 13.4302 153.181 13.9702C153.191 14.6302 150.111 19.1002 149.251 20.0202C146.111 23.3702 135.811 27.0002 141.191 32.4802C142.111 29.2102 146.471 23.9602 150.221 25.9902C151.221 34.2102 140.041 37.7902 138.351 42.1202C137.621 44.0002 138.041 44.9302 140.191 44.4602C139.621 42.2102 146.151 37.3302 147.201 38.4702C148.751 47.8002 135.081 48.7702 137.701 58.4602L143.201 51.9602L145.171 52.9502C143.811 55.2002 144.451 57.8002 143.451 60.2102C142.231 63.1702 139.081 63.7602 137.781 65.5402C135.141 69.1602 136.561 76.1602 136.211 80.4602C137.981 80.7402 138.401 80.5102 139.661 79.4202C146.581 73.4302 154.341 56.5302 160.781 48.5502C167.221 40.5702 177.091 31.4802 188.181 32.4702L153.191 81.4602H182.681L184.181 82.9602V106.96C184.181 107.49 181.671 109.55 180.611 109.47H138.191V133.96L139.691 135.46H175.181C174.861 136.44 176.181 137.63 176.181 137.96V160.96L174.681 162.46H138.191V188.96L139.691 190.46H185.181C186.801 199.33 186.801 209.61 185.181 218.46H111.701Z" fill="#00AF66"/>
<path d="M206.181 299.46V280.96C206.181 279.76 208.551 270.79 209.131 268.91C213.311 255.49 221.881 245.96 232.681 237.46C234.291 243.87 228.971 249.73 226.711 255.49C220.951 270.14 217.751 283.83 215.681 299.48L206.191 299.46H206.181Z" fill="#00AF66"/>
<path d="M203.16 299.45L195.86 300.32L193.73 298.41C190.68 288.88 188.55 277.85 184.37 268.78C180.45 260.27 173.09 253.98 170.19 245.48C174.21 245.12 178.01 247.74 181.1 250.06C195.31 260.77 202.91 282.22 203.17 299.46L203.16 299.45Z" fill="#00AF66"/>
<path d="M248.95 259.75C251.89 259.41 256 258.44 258.15 260.97C252.29 265.08 245.67 270.36 241.2 275.99C236.96 281.32 230.72 296.93 227.72 299.59C226.65 300.54 221.7 300.46 220.15 300.01C219.19 299.42 220.05 291.53 220.29 290.07C222.63 275.73 233.94 261.49 248.96 259.75H248.95Z" fill="#00AF66"/>
<path d="M190.181 299.46C187.811 299.23 184.961 299.89 182.701 299.45C178.621 298.65 170.761 281.96 166.701 278.46L152.201 265.99C153.641 262.89 160.651 265.22 163.191 265.97C176.021 269.77 189.901 285.64 190.181 299.47V299.46Z" fill="#00AF66"/>
<path d="M473.28 162.66C478.12 159.83 480.7 167.92 474.46 172.32C468.22 176.72 456.01 176.73 451.12 169.97C449.08 167.14 448.1 162.43 452.61 162.44C455.82 162.45 460.63 173.75 471.09 165.94C472.44 164.93 472.96 162.85 473.27 162.67L473.28 162.66Z" fill="#00AF66"/>
<path d="M473.761 129.62C482.411 130.13 481.741 148.83 474.561 149.51C467.381 150.19 467.021 132.07 473.761 129.62Z" fill="#00AF66"/>
<path d="M453.62 129.81C460.47 129.81 461.65 149.27 452.67 149.52C445.89 148.91 446.42 129.82 453.62 129.81Z" fill="#00AF66"/>
</svg>
